# xmcd
#
# Track frame offsets: 
#        182
#        35132
#        66417
#        84997
#        104237
#        145882
#        166832
#
# Disc length: 2615 seconds
#
# Revision: 2
# Processed by: cddbd v1.5.2PL0 Copyright (c) Steve Scherf et al.
# Submitted via: ExactAudioCopy v0.99pb4
#
DISCID=630a3507
DTITLE=Musicfest Trio - Brahms and Beethoven Clarinet Trios - Musicfest 
DTITLE=Trio
DYEAR=1991
DGENRE=Chamber
TTITLE0=Brahms Clarinet Trio in A minor, Op.114 - I. Allegro
TTITLE1=Brahms Clarinet Trio in A minor, Op.114 - II. Adagio
TTITLE2=Brahms Clarinet Trio in A minor, Op.114 - III. Andantino grazi
TTITLE2=oso
TTITLE3=Brahms Clarinet Trio in A minor, Op.114 - IV. Allegro
TTITLE4=Beethoven Clarinet Trio in B flat, Op.11 - I. Allegro con brio
TTITLE5=Beethoven Clarinet Trio in B flat, Op.11 - II. Adagio
TTITLE6=Beethoven Clarinet Trio in B flat, Op.11 - III. Allegretto-Tem
TTITLE6=a- Pria ch'io l'impegno
EXTD=
EXTT0=
EXTT1=
EXTT2=
EXTT3=
EXTT4=
EXTT5=
EXTT6=
PLAYORDER=
